PathFileType	4	(X/Y/Z)	2_coords_data.trc
DataRate	CameraRate	NumFrames	NumMarkers	Units	OrigDataRate	OrigDataStartFrame	OrigNumFrames
30.0	30.0	8	21	m	30.0	10	59
Frame#	Time	THUMB_TIP	THUMB_IP	THUMB_MCP	THUMB_CMC	INDEX_TIP	INDEX_DIP	INDEX_PIP	INDEX_MCP	MIDDLE_TIP	MIDDLE_DIP	MIDDLE_PIP	MIDDLE_MCP	RING_TIP	RING_DIP	RING_PIP	RING_MCP	PINKY_TIP	PINKY_DIP	PINKY_PIP	PINKY_MCP	WRIST
X1	Y1	Z1	X2	Y2	Z2	X3	Y3	Z3	X4	Y4	Z4	X5	Y5	Z5	X6	Y6	Z6	X7	Y7	Z7	X8	Y8	Z8	X9	Y9	Z9	X10	Y10	Z10	X11	Y11	Z11	X12	Y12	Z12	X13	Y13	Z13	X14	Y14	Z14	X15	Y15	Z15	X16	Y16	Z16	X17	Y17	Z17	X18	Y18	Z18	X19	Y19	Z19	X20	Y20	Z20	X21	Y21	Z21
9	0.3	-0.041901100158691404	-0.04307199859619141	0.9146220092773437	-0.041453800201416015	-0.018453699111938476	0.9316019897460938	-0.044317798614501955	0.00636860990524292	0.9525139770507812	-0.050804298400878904	0.03926919937133789	0.9723309936523438	-0.03549959945678711	0.04275910186767578	0.9406530151367187	-0.01731760025024414	0.047769100189208984	0.937385009765625	-0.006890480041503906	0.04789289855957031	0.9158909912109375	-0.04922620010375976	0.03914250183105469	0.9111069946289062	-0.027302400588989258	0.06009249877929688	0.9447119750976563	-0.02196260070800781	0.06416230010986328	0.9423330078125	-0.009414019584655762	0.06738150024414062	0.9188150024414062	-0.05406549835205078	0.06247359848022461	0.91006201171875	-0.03827059936523437	0.07299469757080078	0.9498820190429688	-0.02411899948120117	0.07954679870605469	0.94231201171875	-0.014012900352478028	0.08533979797363281	0.9187080078125	-0.05657320022583008	0.0834813003540039	0.9174500122070313	-0.03728300094604492	0.08816089630126953	0.9493820190429687	-0.02318709945678711	0.09384770202636719	0.9419210205078125	-0.022691299438476562	0.09989669799804687	0.9260540161132812	-0.05609370040893555	0.09961499786376952	0.9276400146484375	-0.08038390350341797	0.05911240005493164	0.9947069702148438
10	0.3333333333333333	-0.0418473014831543	-0.04266030120849609	0.9143720092773437	-0.04146160125732422	-0.01809830093383789	0.9314349975585937	-0.04434439849853516	0.006659989833831787	0.952406005859375	-0.05076409912109375	0.0393911018371582	0.9721699829101562	-0.03606100082397461	0.04294919967651367	0.939875	-0.017821599960327148	0.04814009857177735	0.9372069702148438	-0.007336639881134034	0.048370601654052735	0.9157139892578126	-0.04972359848022461	0.03941279983520508	0.9110250244140625	-0.027331499099731444	0.06064799880981445	0.9439559936523437	-0.022297500610351562	0.06467400360107421	0.9421270141601562	-0.009973389625549316	0.06783519744873047	0.9185079956054687	-0.05472159957885742	0.06267580032348632	0.9099359741210937	-0.03851530075073242	0.07332260131835938	0.9505460205078125	-0.024528900146484376	0.07997599792480468	0.9420490112304688	-0.014685799598693847	0.08573509979248047	0.91839599609375	-0.057194400787353515	0.08373699951171874	0.9173930053710937	-0.03815129852294922	0.08863819885253907	0.9492639770507812	-0.02369849967956543	0.09429119873046875	0.9416920166015625	-0.023383399963378907	0.10017600250244141	0.9256840209960937	-0.056691001892089844	0.09990470123291016	0.9276300048828126	-0.08051229858398437	0.05930120086669922	0.99447802734375
11	0.36666666666666664	-0.04209930038452148	-0.042361499786376954	0.9141640014648438	-0.0417234001159668	-0.017838199615478514	0.931281982421875	-0.0445973014831543	0.0069015097618103025	0.9522760009765625	-0.05112120056152344	0.03972719955444336	0.9721190185546875	-0.03621739959716797	0.0435718994140625	0.9404959716796875	-0.018095500946044923	0.04835210037231445	0.9371669921875	-0.00746628999710083	0.04861439895629883	0.91564697265625	-0.049907798767089846	0.03971920013427734	0.9109420166015625	-0.02763570022583008	0.06090169906616211	0.9439240112304688	-0.02262660026550293	0.06487110137939453	0.942094970703125	-0.010134900093078613	0.06807720184326171	0.918447021484375	-0.05490140151977539	0.06306700134277343	0.9099970092773437	-0.03867589950561524	0.07350160217285157	0.9499249877929687	-0.024849000930786132	0.0801510009765625	0.9420689697265625	-0.0148548002243042	0.08597200012207032	0.9184910278320313	-0.05742070007324219	0.08413240051269531	0.9174940185546875	-0.03829130172729492	0.08890760040283203	0.949073974609375	-0.023807899475097656	0.09452339935302734	0.9416890258789062	-0.023593399047851564	0.10041500091552734	0.9257039794921875	-0.056881900787353515	0.10015599822998048	0.9275469970703125	-0.0808582992553711	0.05948210144042969	0.99464501953125
12	0.4	-0.04183840179443359	-0.0421693000793457	0.913958984375	-0.04162070083618164	-0.017655399322509764	0.9312869873046875	-0.04453670120239258	0.006978469848632813	0.9522219848632812	-0.05109579849243164	0.03972389984130859	0.9720679931640624	-0.0364556999206543	0.04350500106811524	0.940614990234375	-0.018102500915527345	0.048435001373291015	0.9372160034179687	-0.007494880199432373	0.048765499114990236	0.91575	-0.04979230117797852	0.03982059860229492	0.910864990234375	-0.027532100677490234	0.061092998504638674	0.9439180297851563	-0.022440399169921875	0.06504660034179688	0.9421929931640625	-0.010135000228881835	0.06824759674072266	0.918531005859375	-0.054838298797607425	0.06317399978637696	0.9100150146484375	-0.03872560119628906	0.07373439788818359	0.9506950073242187	-0.0248799991607666	0.08022090148925781	0.9422069702148438	-0.01483430004119873	0.08612100219726562	0.9186209716796875	-0.057444400787353515	0.08423169708251953	0.9176179809570313	-0.03822359848022461	0.08908930206298828	0.9490579833984375	-0.02394109916687012	0.0945687026977539	0.9419000244140625	-0.02363409996032715	0.10060399627685547	0.9257540283203125	-0.05698369979858398	0.1002040023803711	0.9276400146484375	-0.08104389953613281	0.05947969818115234	0.994655029296875
13	0.43333333333333335	-0.04167409896850586	-0.042165699005126955	0.9138980102539063	-0.04145349884033203	-0.01768840026855469	0.931093017578125	-0.04444940185546875	0.007059209823608399	0.9521929931640625	-0.051089000701904294	0.03972819900512695	0.9720640258789063	-0.036390201568603515	0.043723899841308596	0.940594970703125	-0.01822640037536621	0.048541400909423826	0.9369849853515625	-0.00778223991394043	0.04887969970703125	0.91539599609375	-0.050074501037597655	0.039689498901367186	0.9107440185546875	-0.028051399230957032	0.06077899932861328	0.9443900146484375	-0.02273320007324219	0.06507430267333984	0.941968017578125	-0.010525799751281739	0.06836100006103515	0.9182739868164063	-0.05528440093994141	0.06303509902954102	0.9098109741210938	-0.03906100082397461	0.0735790023803711	0.94947998046875	-0.025174800872802734	0.0802864990234375	0.9419169921875	-0.015286999702453613	0.08618479919433594	0.918333984375	-0.05787070083618164	0.08401090240478516	0.917375	-0.038774101257324216	0.08901010131835937	0.9490269775390625	-0.024239500045776366	0.0947052993774414	0.9415499877929687	-0.02414539909362793	0.10060800170898437	0.9255380249023437	-0.05738949966430664	0.10011000061035157	0.9275280151367188	-0.08098709869384765	0.059464000701904295	0.9945549926757813
14	0.4666666666666667	-0.042180198669433594	-0.04223809814453125	0.9136710205078125	-0.04184650039672851	-0.017844200134277344	0.9309219970703125	-0.04472269821166992	0.006756279945373535	0.952072998046875	-0.05127399826049805	0.03958300018310547	0.9721170043945313	-0.036655799865722656	0.04319649887084961	0.941072021484375	-0.018264699935913085	0.04818569946289063	0.937073974609375	-0.007694930076599121	0.04855419921875	0.9158480224609375	-0.05002619934082031	0.039576698303222656	0.9107490234375	-0.027864999771118164	0.06051399993896484	0.9443920288085937	-0.022729000091552733	0.06468270111083985	0.9420089721679688	-0.010326600074768067	0.06799520111083984	0.9183610229492187	-0.05511090087890625	0.06295949935913087	0.9098350219726562	-0.037736499786376956	0.07369400024414062	0.9498870239257813	-0.02500659942626953	0.07995909881591796	0.9421270141601562	-0.014988499641418457	0.08588359832763671	0.9183519897460938	-0.0576348991394043	0.08400679779052735	0.917447998046875	-0.03854880142211914	0.08852940368652344	0.94927099609375	-0.024166500091552735	0.09424829864501953	0.9419130249023437	-0.023704900741577148	0.10031199645996093	0.9256829833984375	-0.05700210189819336	0.10001399993896484	0.9276259765625	-0.08095249938964844	0.05919110107421875	0.9947109985351562
15	0.5	-0.04169469833374023	-0.04234510040283203	0.9134949951171875	-0.04147430038452148	-0.017964000701904296	0.9308070068359375	-0.04440650177001953	0.0065910000801086424	0.95214599609375	-0.050987098693847654	0.0392234001159668	0.9721259765625	-0.036267101287841795	0.043007701873779294	0.9397960205078125	-0.01803940010070801	0.04807170104980469	0.9371510009765625	-0.007448939800262451	0.048578201293945314	0.9157269897460938	-0.049840999603271485	0.03946440124511719	0.9108729858398438	-0.027892799377441407	0.060395500183105466	0.9445800170898437	-0.022401199340820313	0.06466719818115234	0.9420999755859375	-0.010192500114440919	0.0679655990600586	0.9185440063476562	-0.05492190170288086	0.06277719879150391	0.9099299926757812	-0.03869760131835937	0.07336029815673828	0.9497689819335937	-0.02485300064086914	0.07982640075683593	0.9422310180664063	-0.014906499862670898	0.08581670379638671	0.9185479736328125	-0.057490798950195314	0.08378839874267578	0.9175709838867188	-0.03828609848022461	0.08847329711914062	0.9496510009765625	-0.024038700103759764	0.09407230377197266	0.942010986328125	-0.023662099838256834	0.10023200225830078	0.9260900268554687	-0.05696780014038086	0.09978919982910156	0.9278109741210937	-0.08097630310058594	0.059067901611328126	0.994530029296875
16	0.5333333333333333	-0.04155550003051758	-0.04249129867553711	0.9134730224609375	-0.041352798461914066	-0.01806369972229004	0.9308560180664063	-0.04436520004272461	0.006444469928741455	0.9520969848632812	-0.05094070053100586	0.03914120101928711	0.9723109741210938	-0.036041301727294923	0.0428031005859375	0.9402789916992188	-0.017914899826049803	0.04796490097045898	0.9372080078125	-0.007333479881286621	0.04839080047607422	0.915781982421875	-0.049523601531982424	0.03931119918823242	0.9108109741210938	-0.02757309913635254	0.06036080169677734	0.9444959716796875	-0.022552200317382812	0.064345703125	0.9422340087890625	-0.010075799942016602	0.06782060241699218	0.9185180053710937	-0.05475090026855469	0.06262429809570312	0.9098319702148437	-0.038609901428222654	0.07330909729003907	0.9502789916992187	-0.024777299880981447	0.07975779724121093	0.9423159790039063	-0.014757699966430664	0.08569270324707032	0.918469970703125	-0.0573036003112793	0.08365740203857422	0.91756298828125	-0.038064601898193356	0.08829630279541016	0.9502459716796875	-0.023752500534057617	0.09403299713134766	0.9420029907226563	-0.023438499450683593	0.10003099822998048	0.9259000244140625	-0.056764598846435546	0.09960479736328125	0.9277310180664062	-0.08086849975585937	0.05868230056762695	0.99481298828125
